IKResults
version=1
nRows=192
nColumns=3
inDegrees=yes

Units are S.I. units (second, meters, Newtons, ...)
If the header above contains a line with 'inDegrees', this indicates whether rotational values are in degrees (yes) or radians (no).

endheader
time	r_shoulder_elev	r_elbow_flex
     40.77500000	     -2.05304092	    102.12641044
     40.78300000	     -2.04264059	    102.12448724
     40.79200000	     -2.03353436	    102.12433488
     40.80000000	     -2.02224940	    102.11950676
     40.80800000	     -2.01332707	    102.11737935
     40.81700000	     -2.00448362	    102.11261247
     40.82500000	     -1.99554064	    102.11080112
     40.83300000	     -1.98668252	    102.10597026
     40.84200000	     -1.97997708	    102.10385627
     40.85000000	     -1.97224952	    102.10073970
     40.85800000	     -1.96558552	    102.09853588
     40.86700000	     -1.95893042	    102.09640470
     40.87500000	     -1.95447595	    102.09791725
     40.88300000	     -1.94953348	    102.09892502
     40.89200000	     -1.94363041	    102.09654380
     40.90000000	     -1.93923362	    102.09424781
     40.90800000	     -1.93659036	    102.09461922
     40.91700000	     -1.93150095	    102.08832319
     40.92500000	     -1.92994530	    102.08822084
     40.93300000	     -1.92627068	    102.08099956
     40.94200000	     -1.92428987	    102.07430328
     40.95000000	     -1.92386524	    102.06740944
     40.95800000	     -1.92324066	    102.06009521
     40.96700000	     -1.92065424	    102.04579795
     40.97500000	     -1.92029743	    102.03390630
     40.98300000	     -1.92015212	    102.01996940
     40.99200000	     -1.92156885	    102.00540185
     41.00000000	     -1.92228930	    101.98995687
     41.00800000	     -1.92372155	    101.97322786
     41.01700000	     -1.92407639	    101.95085508
     41.02500000	     -1.92732227	    101.93117046
     41.03300000	     -1.92749284	    101.90649242
     41.04200000	     -1.92880142	    101.87809962
     41.05000000	     -1.93115175	    101.84833955
     41.05800000	     -1.93379050	    101.81702011
     41.06700000	     -1.93596931	    101.78494086
     41.07500000	     -1.93886025	    101.75158583
     41.08300000	     -1.94287642	    101.71690052
     41.09200000	     -1.94647750	    101.68446546
     41.10000000	     -1.95122412	    101.65043335
     41.10800000	     -1.95708198	    101.61772874
     41.11700000	     -1.96213673	    101.58182448
     41.12500000	     -1.96913884	    101.55041117
     41.13300000	     -1.97638658	    101.51448058
     41.14200000	     -1.98458338	    101.48189124
     41.15000000	     -1.99098165	    101.44294903
     41.15800000	     -2.00035522	    101.40916787
     41.16700000	     -2.00869630	    101.37449566
     41.17500000	     -2.01713743	    101.33765787
     41.18300000	     -2.02767066	    101.30515718
     41.19200000	     -2.03710673	    101.26920481
     41.20000000	     -2.04660144	    101.23584840
     41.20800000	     -2.05720174	    101.20120277
     41.21700000	     -2.06667794	    101.16532162
     41.22500000	     -2.07626891	    101.12981034
     41.23300000	     -2.08560511	    101.09372408
     41.24200000	     -2.09606051	    101.06114966
     41.25000000	     -2.10440378	    101.02425507
     41.25800000	     -2.11478175	    100.99159312
     41.26700000	     -2.12391592	    100.95759092
     41.27500000	     -2.13307735	    100.92357531
     41.28300000	     -2.14221606	    100.88953981
     41.29200000	     -2.15139104	    100.85553329
     41.30000000	     -2.16073963	    100.82201944
     41.30800000	     -2.16974175	    100.79009756
     41.31700000	     -2.17882524	    100.75836201
     41.32500000	     -2.18902657	    100.72779348
     41.33300000	     -2.19711729	    100.69525368
     41.34200000	     -2.20633207	    100.66611078
     41.35000000	     -2.21427632	    100.63565801
     41.35800000	     -2.22348158	    100.60656812
     41.36700000	     -2.23153805	    100.57626618
     41.37500000	     -2.23949195	    100.54806991
     41.38300000	     -2.24615158	    100.52073867
     41.39200000	     -2.25312214	    100.49398396
     41.40000000	     -2.26066733	    100.47211677
     41.40800000	     -2.26713093	    100.44917340
     41.41700000	     -2.27479049	    100.42747293
     41.42500000	     -2.28110269	    100.40663457
     41.43300000	     -2.28745021	    100.38579745
     41.44200000	     -2.29299506	    100.36204960
     41.45000000	     -2.29838012	    100.34036269
     41.45800000	     -2.30395998	    100.31667771
     41.46700000	     -2.30828468	    100.29157619
     41.47500000	     -2.31187797	    100.26363452
     41.48300000	     -2.31530844	    100.23495121
     41.49200000	     -2.31625207	    100.20209591
     41.50000000	     -2.31798927	    100.16992069
     41.50800000	     -2.31818500	    100.13163146
     41.51700000	     -2.31913626	    100.09189092
     41.52500000	     -2.31863831	    100.04853413
     41.53300000	     -2.31856193	    100.00309678
     41.54200000	     -2.32012198	     99.95478642
     41.55000000	     -2.31984336	     99.90254059
     41.55800000	     -2.32209336	     99.84579237
     41.56700000	     -2.32350324	     99.78847588
     41.57500000	     -2.32529512	     99.72727913
     41.58300000	     -2.32718252	     99.66129465
     41.59200000	     -2.33003386	     99.59617405
     41.60000000	     -2.33193791	     99.52545480
     41.60800000	     -2.33493420	     99.45365789
     41.61700000	     -2.33809150	     99.37980277
     41.62500000	     -2.34007943	     99.30234315
     41.63300000	     -2.34217717	     99.22274652
     41.64200000	     -2.34527074	     99.14427257
     41.65000000	     -2.34815413	     99.06537345
     41.65800000	     -2.35130896	     98.98468812
     41.66700000	     -2.35344074	     98.90065753
     41.67500000	     -2.35671353	     98.81564256
     41.68300000	     -2.35805070	     98.72637011
     41.69200000	     -2.36153404	     98.63710908
     41.70000000	     -2.36282666	     98.54083501
     41.70800000	     -2.36322101	     98.44381783
     41.71700000	     -2.36359153	     98.34222115
     41.72500000	     -2.36303377	     98.23750469
     41.73300000	     -2.36138237	     98.12702729
     41.74200000	     -2.36083135	     98.01550048
     41.75000000	     -2.36013636	     97.90150236
     41.75800000	     -2.36078963	     97.78223184
     41.76700000	     -2.36139599	     97.66056696
     41.77500000	     -2.36199089	     97.53436853
     41.78300000	     -2.36341915	     97.40669049
     41.79200000	     -2.36604002	     97.27808056
     41.80000000	     -2.36742295	     97.14579516
     41.80800000	     -2.36990955	     97.01251929
     41.81700000	     -2.37324931	     96.87545622
     41.82500000	     -2.37564200	     96.73294102
     41.83300000	     -2.38010536	     96.58810012
     41.84200000	     -2.38337760	     96.43968549
     41.85000000	     -2.38563571	     96.28577899
     41.85800000	     -2.38991719	     96.13176188
     41.86700000	     -2.39314249	     95.97214763
     41.87500000	     -2.39510895	     95.80436664
     41.88300000	     -2.39699005	     95.63432677
     41.89200000	     -2.39772186	     95.45627879
     41.90000000	     -2.39927859	     95.27453026
     41.90800000	     -2.39975656	     95.08488611
     41.91700000	     -2.40199532	     94.89478656
     41.92500000	     -2.40181888	     94.69982006
     41.93300000	     -2.40346649	     94.49997432
     41.94200000	     -2.40474694	     94.29735887
     41.95000000	     -2.40799146	     94.09457426
     41.95800000	     -2.41164187	     93.88746996
     41.96700000	     -2.41617528	     93.68356205
     41.97500000	     -2.42121112	     93.47779806
     41.98300000	     -2.42907783	     93.27713739
     41.99200000	     -2.43869678	     93.07826936
     42.00000000	     -2.44904629	     92.88227013
     42.00800000	     -2.46207857	     92.69571138
     42.01700000	     -2.47696768	     92.51559047
     42.02500000	     -2.49148255	     92.33730705
     42.03300000	     -2.50899467	     92.16422332
     42.04200000	     -2.52421752	     91.99357542
     42.05000000	     -2.54128241	     91.82905031
     42.05800000	     -2.55693671	     91.66334416
     42.06700000	     -2.57349193	     91.50281099
     42.07500000	     -2.58874255	     91.34100992
     42.08300000	     -2.60388057	     91.18126561
     42.09200000	     -2.61666518	     91.02372917
     42.10000000	     -2.62932419	     90.86596626
     42.10800000	     -2.63968386	     90.70819513
     42.11700000	     -2.64852386	     90.54873032
     42.12500000	     -2.65749571	     90.39153556
     42.13300000	     -2.66499284	     90.23511181
     42.14200000	     -2.67033333	     90.07876521
     42.15000000	     -2.67543206	     89.92435754
     42.15800000	     -2.67956366	     89.77341284
     42.16700000	     -2.68239771	     89.62347625
     42.17500000	     -2.68488237	     89.47305929
     42.18300000	     -2.68717484	     89.32241958
     42.19200000	     -2.68919352	     89.17364113
     42.20000000	     -2.69015716	     89.02595591
     42.20800000	     -2.69210005	     88.87919805
     42.21700000	     -2.69367032	     88.73440314
     42.22500000	     -2.69425866	     88.59077396
     42.23300000	     -2.69471307	     88.44922372
     42.24200000	     -2.69578649	     88.30826279
     42.25000000	     -2.69704634	     88.17208590
     42.25800000	     -2.70049482	     88.04008108
     42.26700000	     -2.70368472	     87.90818059
     42.27500000	     -2.70808777	     87.78182087
     42.28300000	     -2.71356529	     87.65900230
     42.29200000	     -2.71779479	     87.53707307
     42.30000000	     -2.72346637	     87.42126618
     42.30800000	     -2.72880135	     87.30511986
     42.31700000	     -2.73440200	     87.19379839
     42.32500000	     -2.74015285	     87.08499497
     42.33300000	     -2.74605820	     86.97618188
     42.34200000	     -2.75192543	     86.86993599
     42.35000000	     -2.75683876	     86.76276066
     42.35800000	     -2.76067742	     86.65688177
     42.36700000	     -2.76458992	     86.55109780
